<svg viewBox="0 0 860 200" xmlns="http://www.w3.org/2000/svg">
  <defs>
    <linearGradient id="bg" x1="0" y1="0" x2="1" y2="1">
      <stop offset="0%" stop-color="#111111"/>
      <stop offset="100%" stop-color="#1a1a1a"/>
    </linearGradient>
  </defs>
  <rect width="860" height="200" fill="url(#bg)" rx="10"/>
  <!-- GRID -->
  <g stroke="#ffffff" stroke-width="0.3" opacity="0.04">
    <line x1="86" y1="0" x2="86" y2="200"/>
    <line x1="172" y1="0" x2="172" y2="200"/>
    <line x1="258" y1="0" x2="258" y2="200"/>
    <line x1="344" y1="0" x2="344" y2="200"/>
    <line x1="430" y1="0" x2="430" y2="200"/>
    <line x1="516" y1="0" x2="516" y2="200"/>
    <line x1="602" y1="0" x2="602" y2="200"/>
    <line x1="688" y1="0" x2="688" y2="200"/>
    <line x1="774" y1="0" x2="774" y2="200"/>
    <line x1="0" y1="50" x2="860" y2="50"/>
    <line x1="0" y1="100" x2="860" y2="100"/>
    <line x1="0" y1="150" x2="860" y2="150"/>
  </g>
  <!-- PIPELINE PRINCIPAL -->
  <line x1="60" y1="100" x2="800" y2="100" stroke="#ffffff" stroke-width="0.8" stroke-dasharray="4 8" opacity="0.12"/>
  <!-- NÓS -->
  <circle cx="120" cy="100" r="6" fill="none" stroke="#555" stroke-width="1.2"/>
  <circle cx="120" cy="100" r="2.5" fill="#444"/>
  <circle cx="258" cy="100" r="6" fill="none" stroke="#666" stroke-width="1.2"/>
  <circle cx="258" cy="100" r="2.5" fill="#555"/>
  <circle cx="430" cy="100" r="9" fill="none" stroke="#999" stroke-width="1.5"/>
  <circle cx="430" cy="100" r="4" fill="#888"/>
  <circle cx="602" cy="100" r="6" fill="none" stroke="#666" stroke-width="1.2"/>
  <circle cx="602" cy="100" r="2.5" fill="#555"/>
  <circle cx="740" cy="100" r="6" fill="none" stroke="#555" stroke-width="1.2"/>
  <circle cx="740" cy="100" r="2.5" fill="#444"/>
  <!-- LINHAS VERTICAIS -->
  <line x1="120" y1="70" x2="120" y2="90" stroke="#333" stroke-width="0.8"/>
  <line x1="120" y1="110" x2="120" y2="130" stroke="#333" stroke-width="0.8"/>
  <line x1="258" y1="65" x2="258" y2="90" stroke="#333" stroke-width="0.8"/>
  <line x1="258" y1="110" x2="258" y2="135" stroke="#333" stroke-width="0.8"/>
  <line x1="430" y1="55" x2="430" y2="87" stroke="#555" stroke-width="1"/>
  <line x1="430" y1="113" x2="430" y2="145" stroke="#555" stroke-width="1"/>
  <line x1="602" y1="65" x2="602" y2="90" stroke="#333" stroke-width="0.8"/>
  <line x1="602" y1="110" x2="602" y2="135" stroke="#333" stroke-width="0.8"/>
  <line x1="740" y1="70" x2="740" y2="90" stroke="#333" stroke-width="0.8"/>
  <line x1="740" y1="110" x2="740" y2="130" stroke="#333" stroke-width="0.8"/>
  <!-- LABELS -->
  <text x="120" y="58" text-anchor="middle" font-family="monospace" font-size="7" fill="#444">INGEST</text>
  <text x="258" y="53" text-anchor="middle" font-family="monospace" font-size="7" fill="#444">RAW</text>
  <text x="430" y="43" text-anchor="middle" font-family="monospace" font-size="7" fill="#666">TRANSFORM</text>
  <text x="602" y="53" text-anchor="middle" font-family="monospace" font-size="7" fill="#444">SERVE</text>
  <text x="740" y="58" text-anchor="middle" font-family="monospace" font-size="7" fill="#444">ANALYTICS</text>
  <!-- SUB-PIPELINES -->
  <line x1="180" y1="65" x2="380" y2="65" stroke="#ffffff" stroke-width="0.4" stroke-dasharray="2 6" opacity="0.06"/>
  <circle cx="180" cy="65" r="2" fill="none" stroke="#2a2a2a" stroke-width="0.8"/>
  <circle cx="380" cy="65" r="2" fill="none" stroke="#2a2a2a" stroke-width="0.8"/>
  <line x1="480" y1="135" x2="680" y2="135" stroke="#ffffff" stroke-width="0.4" stroke-dasharray="2 6" opacity="0.06"/>
  <circle cx="480" cy="135" r="2" fill="none" stroke="#2a2a2a" stroke-width="0.8"/>
  <circle cx="680" cy="135" r="2" fill="none" stroke="#2a2a2a" stroke-width="0.8"/>
  <!-- RODAPÉ -->
  <text x="430" y="185" text-anchor="middle" font-family="monospace" font-size="8" fill="#2d2d2d" letter-spacing="4">DATA ENGINEERING</text>
</svg>
